<svg xmlns="http://www.w3.org/2000/svg" viewBox="0 0 500 500"><g id="freepik--background-simple--inject-132"><path d="M152.44,192c-21,52-104.76,148.51-2.94,182.17,66.76,22.07,171.52-61.65,195.08-118.7,26.51-64.18.55-145.48-63-177.82-33.88-17.24-80.62-15.9-106.2,16.2C152.83,122.09,165.11,160.61,152.44,192Z" style="fill:#FF7600"></path><path d="M152.44,192c-21,52-104.76,148.51-2.94,182.17,66.76,22.07,171.52-61.65,195.08-118.7,26.51-64.18.55-145.48-63-177.82-33.88-17.24-80.62-15.9-106.2,16.2C152.83,122.09,165.11,160.61,152.44,192Z" style="fill:#fff;opacity:0.9"></path></g><g id="freepik--Shadow--inject-132"><ellipse id="freepik--path--inject-132" cx="250" cy="416.24" rx="193.89" ry="11.32" style="fill:#f5f5f5"></ellipse></g><g id="freepik--Character--inject-132"><path d="M233.47,189.25c-1.67-.29-3.11-.56-4.65-.9s-3-.7-4.5-1.08c-3-.8-6-1.67-9-2.74a72.5,72.5,0,0,1-9-3.81,43.88,43.88,0,0,1-4.64-2.67,27.17,27.17,0,0,1-4.88-4.14l-.28-.31a5.12,5.12,0,0,1-.63-.86,15.52,15.52,0,0,1-1.7-4.06,22.5,22.5,0,0,1-.64-3.19,45.8,45.8,0,0,1-.38-5.54,87.37,87.37,0,0,1,.53-10.12q.53-4.92,1.4-9.7c.6-3.2,1.24-6.33,2.11-9.53a4.28,4.28,0,0,1,8.41.92v.06l.43,9.31c.14,3.1.29,6.18.51,9.21s.49,6,.89,8.8a30.27,30.27,0,0,0,.77,3.84,14.44,14.44,0,0,0,.47,1.41c.14.35.32.53.19.26l-.91-1.17a15.68,15.68,0,0,0,2.06,1.25c.94.46,2,1,3.15,1.43s2.35.89,3.59,1.3,2.52.83,3.82,1.2c2.59.75,5.26,1.47,8,2.13l4.05,1,4,.91.22,0a8.55,8.55,0,0,1-3.34,16.77Z" style="fill:#FF7600"></path><path d="M196.53,131.82,192,129l8.7-7.83s6.17,4.94,4.91,9a2,2,0,0,1-.83,1.07l-.74.48A7,7,0,0,1,196.53,131.82Z" style="fill:#ff8b7b"></path><path d="M189.62,119.17l3.51-2.23a3.38,3.38,0,0,1,4.33.61l3.26,3.64L192,129l-3.41-5.12A3.38,3.38,0,0,1,189.62,119.17Z" style="fill:#ff8b7b"></path><path d="M168.63,312.8c35.42-19.73,72.43-48.8,72.43-48.8l-32.39-19s-40,33-57.16,53.73C133.64,320.3,127.38,385,127.38,385l10.84,2.77S154,338,168.63,312.8Z" style="fill:#263238"></path><path d="M219.58,280l-6.15-9.72c1,5.37-.16,11.5-1,14.77Q216.18,282.4,219.58,280Z"></path><path d="M111.56,386.64s15.82.3,17.54-1.77l8.31,2.12-2.29,8.75-5.12-1.3-.58-1-1.5.47c-4.14-1-15.11-4-17.47-5.63A2,2,0,0,1,111.56,386.64Z" style="fill:#263238"></path><polygon points="126.12 385.64 138.25 388.49 140.73 383.23 127.38 379.11 126.12 385.64"></polygon><path d="M250.36,328.35c-1.87-39.93-1.19-61.56-5.2-81.43l-38.3-.9s15.38,61.84,22.73,87.88c5,17.59,73.18,38.35,73.18,38.35l6.46-8.09S259.9,333.16,250.36,328.35Z" style="fill:#263238"></path><path d="M308,387.16s-1.56-13.14-3.77-14.63l1.42-8.46,8.95,1.33-1.16,6.9-1,.68.6,1.44c-.7,4.22-1.95,11.14-3.36,13.66A1.93,1.93,0,0,1,308,387.16Z" style="fill:#263238"></path><polygon points="304.38 373.76 310.33 363.87 304.94 360.13 299.06 372.19 304.38 373.76"></polygon><path d="M268.08,181.48c-11-4.58-27.38-9-38.85-10.12a13.76,13.76,0,0,0-13.83,8.17c-6.88,15.89-11.87,49.31-18.4,75,17.5,11.52,51.65,11.58,51.65,11.58,2.54-5.62,4.47-23.11,5.94-33.75,5-10,12.73-20.94,19.52-34.21A12,12,0,0,0,268.08,181.48Z" style="fill:#FF7600"></path><path d="M265.55,197.58c2.45,2.59,3,7.44,3.17,10.45,1.53-2.63,3-5.35,4.54-8.19Z" style="opacity:0.2"></path><path d="M262.82,156.53l-15.95,7.06c.44,4.94-.32,9.75-8.16,9.51-2.51,1.91-1,6.92,1.87,9.49,8.2.38,13.21-.46,17.34-3.74C257.87,175.36,259.73,162.8,262.82,156.53Z" style="fill:#ff8b7b"></path><path d="M256.17,159.47l-9.3,4.12a17.35,17.35,0,0,1,0,3.45c2.88,1,7.78-.82,8.71-3.44A11.69,11.69,0,0,0,256.17,159.47Z" style="opacity:0.2"></path><path d="M257.92,178.85s-19,16.58-28,29.47c-.35-18.17,2.81-31.8,8.78-35.22C239.68,175.4,245,179.64,257.92,178.85Z" style="fill:#e0e0e0"></path><path d="M237,178.76a7.87,7.87,0,0,0-.43,2.75,1.65,1.65,0,0,0,1.24,1.59,7.37,7.37,0,0,1,3,1.63,1.72,1.72,0,0,0,1.57.34,6.47,6.47,0,0,0,3.5-2.26s.72-4.17-1.66-5.51S237,178.76,237,178.76Z" style="fill:#263238"></path><path d="M258.14,175.52a7.94,7.94,0,0,1,3.77,3.6,27.46,27.46,0,0,1-17.34,5.75c.81-1.28.69-5.75-.31-7.57C249.56,177.94,258.14,175.52,258.14,175.52Z" style="fill:#fafafa"></path><path d="M243.94,172.12a13.09,13.09,0,0,0-5.39.65s-8.06,3.21-2.93,8.1a16.14,16.14,0,0,1,8.64-3.57C239.39,175.12,243.94,172.12,243.94,172.12Z" style="fill:#fafafa"></path><path d="M248.7,134.46c-6.86.47-4.6,10.63-4.6,10.63S254.28,134.09,248.7,134.46Z" style="fill:#263238"></path><path d="M266.7,149.77c-3.44,7.83-5.06,12.59-10.62,15.17-8.35,3.89-16.87-3.52-15.83-12.24.93-7.86,6.41-19.34,15.41-19.56A11.78,11.78,0,0,1,266.7,149.77Z" style="fill:#ff8b7b"></path><path d="M244.49,153.44s3-.22,10.91,1c-1.44,2.28-3.6,4-7.66,3.31A3.56,3.56,0,0,1,244.49,153.44Z" style="fill:#263238"></path><path d="M250,156.16a7.77,7.77,0,0,0-4.68.48,4.09,4.09,0,0,0,2.39,1.13,7.66,7.66,0,0,0,4.67-.48A4.06,4.06,0,0,0,250,156.16Z" style="fill:#ff5652"></path><path d="M244.87,153.43a1.57,1.57,0,0,0,1,1.4,42.89,42.89,0,0,0,7.15.49,2.45,2.45,0,0,0,2.05-.91A64.32,64.32,0,0,0,244.87,153.43Z" style="fill:#fff"></path><path d="M255.93,153.11s2.23.15,1.55,1.83C257.36,154.15,255.93,153.11,255.93,153.11Z" style="opacity:0.2"></path><path d="M265.51,152.69c-5.55,0-2.45-5.81-1-6.46-3.84-1.6-3.12-6.32-.68-7-13.9-.28-19.69-2.59-15.79-7.88S261,127.88,261,127.88s-2.24.77-.54,2c2.15,1.53,9,4.06,12.18,3.7-.92,1.21-3.32,1.81-3.32,1.81s5.64,3.88,11.14,3.58a8.59,8.59,0,0,1-6.31,3.66C276.36,145.49,270.92,154.92,265.51,152.69Z" style="fill:#263238"></path><path d="M274,142.1a11.17,11.17,0,0,0,5.56.18,13.25,13.25,0,0,1-6.58,1.66C272,142.56,274,142.1,274,142.1Z" style="fill:#263238"></path><path d="M267.62,155.42a7.34,7.34,0,0,1-4.66,3.21c-2.56.52-3.67-1.81-2.82-4.12.76-2.08,3-4.86,5.5-4.34A3.36,3.36,0,0,1,267.62,155.42Z" style="fill:#ff8b7b"></path><path d="M255.17,146.9c-.24.65-.78,1-1.21.89s-.57-.82-.33-1.48.78-1.05,1.2-.89S255.41,146.24,255.17,146.9Z" style="fill:#263238"></path><path d="M247.23,144.49c-.24.65-.78,1-1.2.89s-.58-.82-.34-1.47.78-1,1.21-.89S247.47,143.84,247.23,144.49Z" style="fill:#263238"></path><path d="M248.6,145.84a24.52,24.52,0,0,1-5.16,4.4c.75,1.51,2.89,1.76,2.89,1.76Z" style="fill:#ff5652"></path><path d="M257,145.11a.36.36,0,0,0,.21,0,.41.41,0,0,0,.36-.45,4.09,4.09,0,0,0-2-3.17.39.39,0,0,0-.54.18.42.42,0,0,0,.18.55h0a3.27,3.27,0,0,1,1.55,2.53A.4.4,0,0,0,257,145.11Z" style="fill:#263238"></path><path d="M243.44,140.22a.39.39,0,0,0,.37-.1,3.23,3.23,0,0,1,2.81-.89.4.4,0,0,0,.49-.3.4.4,0,0,0-.3-.49,4,4,0,0,0-3.56,1.08.42.42,0,0,0,0,.58A.45.45,0,0,0,243.44,140.22Z" style="fill:#263238"></path><path d="M237.55,181.77c-1.86,5.84-12.29,9.29-21.58,1.37-8.94-7.61-19.91-6.28-24.79,11.45a26.27,26.27,0,0,0,2.46,7.06,7.85,7.85,0,0,1,4.84-3.12c.75-4.23,6-15.5,11.4-13s13,6.06,22.5,4.34c5.41-1,9-5.49,9-5.49Z" style="fill:#263238"></path><path d="M270.92,183.31c1.42.92,2.63,1.75,3.9,2.67s2.49,1.84,3.71,2.78c2.43,1.92,4.82,3.9,7.13,6.08a72.59,72.59,0,0,1,6.77,7.07,44.45,44.45,0,0,1,3.19,4.3,26.69,26.69,0,0,1,2.83,5.74l.13.38a5.71,5.71,0,0,1,.25,1,13.59,13.59,0,0,1-.32,5.15,18.06,18.06,0,0,1-1.22,3.4,34.69,34.69,0,0,1-2.94,5,66.85,66.85,0,0,1-6.49,7.78c-2.27,2.35-4.6,4.55-7,6.65s-4.84,4.07-7.51,6a4.28,4.28,0,0,1-5.95-6l.06-.09,5.32-7.3c1.75-2.44,3.48-4.88,5.08-7.31a73.48,73.48,0,0,0,4.29-7.19,18.56,18.56,0,0,0,1.33-3.17,4.78,4.78,0,0,0,.19-1c0-.18-.13-.07-.07.56l.38,1.44a15.23,15.23,0,0,0-1.4-2c-.67-.81-1.45-1.7-2.32-2.57s-1.8-1.75-2.78-2.62-2-1.76-3-2.62c-2.09-1.72-4.25-3.44-6.46-5.12l-3.34-2.5-3.28-2.41-.18-.13a8.55,8.55,0,0,1,9.73-14.06Z" style="fill:#FF7600"></path><path d="M259.83,269.21a1,1,0,0,1-.24,0,1.42,1.42,0,0,1-1.17-1.64c.2-1.16-.42-2.79-1-4.22-.78-2-1.75-4.57.45-5.71s12.17-3.45,17.88-2.84a3.27,3.27,0,0,1,2.32,1.3c1.5,2,1.07,5.53.56,8.72a1.43,1.43,0,0,1-2.82-.45c.24-1.48.88-5.39,0-6.54a.46.46,0,0,0-.36-.19c-4.89-.53-14,1.55-16.08,2.45a12.21,12.21,0,0,0,.71,2.24c.68,1.78,1.45,3.79,1.12,5.72A1.42,1.42,0,0,1,259.83,269.21Z" style="fill:#FF7600"></path><path d="M295.91,263.8c3.68-.2,3.73.88,5.82,7.65,6.58,21.3,7.94,24.34,6.21,26.41-2.95,3.55-40.05,11-52.13,11s-11.43-34-11.43-34S257.61,265.88,295.91,263.8Z" style="fill:#FF7600"></path><path d="M295.91,263.8c3.68-.2,3.73.88,5.82,7.65,6.58,21.3,7.94,24.34,6.21,26.41-2.95,3.55-40.05,11-52.13,11s-11.43-34-11.43-34S257.61,265.88,295.91,263.8Z" style="opacity:0.5"></path><path d="M295.77,267.79a34,34,0,0,0,15.36-2.85,25.7,25.7,0,0,1,2.14,19.95c-8.63,3-26.45,4-35.08-.71.24-3,4.64-13.94,4.26-17.1C287.69,268.58,295.77,267.79,295.77,267.79Z" style="fill:#e0e0e0"></path><path d="M245.78,269.75a5.94,5.94,0,0,0-3.22,4.06c-3.16,13.58-6.69,19.28,7.36,18.61,14.88-.7,34.37-4.17,47.32-12.22,3.3-2.05,1.11-13.54-.73-17.27C294.83,259.49,258.29,263.84,245.78,269.75Z" style="fill:#FF7600"></path><path d="M245.78,269.75a5.94,5.94,0,0,0-3.22,4.06c-3.16,13.58-6.69,19.28,7.36,18.61,14.88-.7,34.37-4.17,47.32-12.22,3.3-2.05,1.11-13.54-.73-17.27C294.83,259.49,258.29,263.84,245.78,269.75Z" style="opacity:0.30000000000000004"></path><path d="M283.53,281.3a16.61,16.61,0,0,1-1,8.52,1.41,1.41,0,0,0,1.35,2,11.52,11.52,0,0,0,2.74-.41,1.33,1.33,0,0,0,.86-.67c1.67-3.19,1.29-7.73,1-9.94a1.42,1.42,0,0,0-1.52-1.21l-2.14.17A1.42,1.42,0,0,0,283.53,281.3Z" style="fill:#FF7600"></path><path d="M361.29,264.73a36.63,36.63,0,0,1-4.7.7c-15.88,1.38-33.19-9.29-33.19-9.29s9.53,2.61,17.44-1.61C344,259.35,354.72,263.9,361.29,264.73Z" style="fill:#e0e0e0"></path><path d="M352.91,265.54a44.77,44.77,0,0,1-8.44-1,6.32,6.32,0,0,0,5.39-2.18S352.93,263.67,352.91,265.54Z" style="fill:#ebebeb"></path><path d="M367.13,279.15a28.51,28.51,0,0,1,6.24,15.33s16.47,1.74,25.57-7.21c.4-3.4-3.32-12.3-7.13-14.88C389.68,275.8,380.74,279.23,367.13,279.15Z" style="fill:#ebebeb"></path><path d="M252.21,286.71a16.54,16.54,0,0,1-2.11,8.3,1.42,1.42,0,0,0,1.08,2.14,11.17,11.17,0,0,0,2.76,0,1.34,1.34,0,0,0,.95-.55c2.09-2.93,2.32-7.48,2.3-9.71a1.42,1.42,0,0,0-1.34-1.41l-2.14-.13A1.43,1.43,0,0,0,252.21,286.71Z" style="fill:#FF7600"></path><path d="M264,259.37l4.11.63a3.38,3.38,0,0,0,3.73-2.29l1.52-4.65-11.11-3.68-1.07,6.06A3.38,3.38,0,0,0,264,259.37Z" style="fill:#ff8b7b"></path><path d="M267.1,242.41l-4.81,7,11.11,3.68a18,18,0,0,0,1.93-6.88,4.27,4.27,0,0,0-3.6-4.2l-2.63-.43A2.05,2.05,0,0,0,267.1,242.41Z" style="fill:#ff8b7b"></path></g></svg>