<svg xmlns="http://www.w3.org/2000/svg" viewBox="0 0 500 500"><g id="freepik--background-simple--inject-10"><path d="M221.84,112.48c-15.73-6.23-31.14-13.27-48.36-15.74-25-3.58-52.23.39-68.79,19.15-24.07,27.26-21.23,73-4.35,102.1,8.74,15.09,21.84,27.81,35.68,39.49,33.74,28.5,74.22,50.71,121,57.2a160.59,160.59,0,0,0,28.33,1.63C329.49,314.55,367,288,393.18,258.12c62.54-86.11-10.8-138.64-65.13-138.52-25,.06-51.87,6.91-76.52,2.19C241.19,119.8,231.45,116.29,221.84,112.48Z" style="fill:#FF7600"></path><path d="M221.84,112.48c-15.73-6.23-31.14-13.27-48.36-15.74-25-3.58-52.23.39-68.79,19.15-24.07,27.26-21.23,73-4.35,102.1,8.74,15.09,21.84,27.81,35.68,39.49,33.74,28.5,74.22,50.71,121,57.2a160.59,160.59,0,0,0,28.33,1.63C329.49,314.55,367,288,393.18,258.12c62.54-86.11-10.8-138.64-65.13-138.52-25,.06-51.87,6.91-76.52,2.19C241.19,119.8,231.45,116.29,221.84,112.48Z" style="fill:#fff;opacity:0.9"></path></g><g id="freepik--Shadow--inject-10"><ellipse id="freepik--path--inject-10" cx="250" cy="416.24" rx="193.89" ry="11.32" style="fill:#f5f5f5"></ellipse></g><g id="freepik--character-2--inject-10"><polygon points="326.49 396.05 334.87 393.71 331.68 373.68 323.3 376.02 326.49 396.05" style="fill:#ffc3bd"></polygon><polygon points="258.44 408.83 267.14 408.83 269.01 388.68 260.31 388.68 258.44 408.83" style="fill:#ffc3bd"></polygon><path d="M267.69,407.82h-10.6a.75.75,0,0,0-.74.6l-1.72,7.73a1.28,1.28,0,0,0,1.27,1.55c3.41-.06,5.9-.26,10.2-.26,2.65,0,10.62.27,14.27.27s4.13-3.61,2.64-3.93c-6.71-1.47-11.76-3.49-13.9-5.42A2.13,2.13,0,0,0,267.69,407.82Z" style="fill:#263238"></path><path d="M334.54,392.75l-9.16,2.56a.75.75,0,0,0-.55.77l.42,7.91a1.27,1.27,0,0,0,1.63,1.15c3.28-1,8-2.5,12.15-3.66,4.85-1.35,6.92-1.8,12.61-3.38,3.44-1,3.43-4.71,1.9-4.62-7,.39-10.16,1.27-16.8-.64A4,4,0,0,0,334.54,392.75Z" style="fill:#263238"></path><path d="M285.15,131.36c-.1,0,.06,0,.12,0l.28.05.64.11c.44.07.91.16,1.38.21.95.12,1.94.19,2.94.23a56.15,56.15,0,0,0,6.07-.12c1-.12,2.06-.19,3.08-.37s2.06-.31,3.09-.51,2-.47,3.08-.68,2-.56,3.07-.83L306,137a36.78,36.78,0,0,0-2.88-5.12,49.82,49.82,0,0,0-3.75-4.87c-1.36-1.58-2.84-3.11-4.38-4.59-.77-.73-1.55-1.48-2.36-2.18s-1.68-1.42-2.41-2l-.19-.16a3,3,0,0,1,3-5,35.58,35.58,0,0,1,3.39,1.55c1.07.56,2.14,1.13,3.18,1.76a51.74,51.74,0,0,1,6,4.22,46.27,46.27,0,0,1,5.4,5.19A39.5,39.5,0,0,1,315.5,132a5.18,5.18,0,0,1-1.88,7.09,4.43,4.43,0,0,1-.73.35l-.32.13c-1.18.44-2.35.92-3.54,1.34s-2.4.81-3.64,1.12a55.22,55.22,0,0,1-7.53,1.55,50.59,50.59,0,0,1-7.81.39c-1.32-.05-2.65-.16-4-.33-.68-.09-1.36-.19-2.06-.33l-1.06-.23-.57-.14-.72-.21a6,6,0,1,1,3.51-11.39Z" style="fill:#263238"></path><polygon points="331.68 373.68 333.32 384.01 324.94 386.35 323.29 376.02 331.68 373.68" style="opacity:0.2"></polygon><polygon points="260.31 388.69 269.01 388.69 268.04 399.07 259.34 399.07 260.31 388.69" style="opacity:0.2"></polygon><path d="M295.12,138.94c3.93,10.91,5.57,29.8,7.84,66.3l-46.06,6.67c-1.17-6.16-1.74-33.92-9.72-62.45a12.76,12.76,0,0,1,9.7-16,160.84,160.84,0,0,1,25.93-2.88A12.69,12.69,0,0,1,295.12,138.94Z" style="fill:#FF7600"></path><path d="M295.71,113.24l-2.37-5.3-7.78,3.94a8.52,8.52,0,0,0,4.93,6.58,3.4,3.4,0,0,0,3.31-.43l.79-.58A3.47,3.47,0,0,0,295.71,113.24Z" style="fill:#ffc3bd"></path><polygon points="291.27 102.24 284.69 106.08 285.56 111.88 293.35 107.94 291.27 102.24" style="fill:#ffc3bd"></polygon><path d="M257.88,112c1.89,5.4,4.37,14.88,2.33,20.36a3,3,0,0,0,1.17,3.56,20.56,20.56,0,0,0,14.23,3.77c6.47-.7,6.42-4.22,4.77-6.73a2.91,2.91,0,0,0-1.94-1.27c-6.36-1.08-7.55-6.35-7.06-11.17Z" style="fill:#ffc3bd"></path><path d="M263.38,115.5l8,5a21,21,0,0,0,0,3.55c-2.74,0-6.52-1.76-8-4.55C262.44,117.8,262.72,115.81,263.38,115.5Z" style="opacity:0.2"></path><path d="M271,103.55c-6.14-3.66-9.51-11.23-9-12.91S272.16,86,273.48,86.7c6.59,3.32,2.45,12.43,2.45,12.43l2.29,3Z" style="fill:#263238"></path><path d="M254.2,103.25c2.33,8.32,3.28,13.3,8.47,16.7,7.8,5.13,17.37-1,17.56-9.82.17-8-3.68-20.22-12.65-21.79A11.77,11.77,0,0,0,254.2,103.25Z" style="fill:#ffc3bd"></path><path d="M253.74,109.2c-5.75-4.24-10.24-11-9.49-12.57,2-4.16,9.1-7.21,13.63-5,6.65,3.19,1.22,13.7,1.22,13.7l2,3.24Z" style="fill:#263238"></path><path d="M255.85,94.68c7.89.68,19.31-6.27,20.23-12.21-2.85-1.63-7.43.4-7.43.4s1.69-4,1-6.09c-3.12.13-9.55,3.7-10.46,5.33a5.41,5.41,0,0,0-.6-2.87c-2.68,0-20.71,9.49-11.31,16C254.53,96.53,255.85,94.68,255.85,94.68Z" style="fill:#263238"></path><path d="M251.78,112a8.25,8.25,0,0,0,5.76,2.46c2.88,0,3.56-2.75,2.12-5.07-1.29-2.08-4.35-4.6-6.93-3.5S249.93,110.07,251.78,112Z" style="fill:#ffc3bd"></path><path d="M336.4,380.89l-14.19,3.95s-14-50-18.58-76.73c-1.38-8.13-4.39-19.37-8-31.37C291,261.62,285.48,245.32,281,232.56c-4.74-13.44-8.3-22.93-8.3-22.93L303,205.25s14.14,59.51,19,85.61C327.09,318,336.4,380.89,336.4,380.89Z" style="fill:#263238"></path><path d="M295.61,276.74C291,261.62,285.48,245.32,281,232.56l2.66-7C291.85,233.93,296,261.55,295.61,276.74Z" style="opacity:0.2"></path><path d="M288.51,207.34s-2.84,75.42-4.63,100.85c-2,27.84-11.65,87.74-11.65,87.74H256.3s2.7-55.44,5.69-82.49c3.41-30.82-5.08-101.52-5.08-101.52Z" style="fill:#263238"></path><polygon points="273.51 397.16 254.75 397.16 254.75 391.55 275.73 391.19 273.51 397.16" style="fill:#FF7600"></polygon><polygon points="337.53 381.04 320.62 385.76 319.1 380.3 336.97 375.02 337.53 381.04" style="fill:#FF7600"></polygon><path d="M267.91,102.84c.15.69.63,1.17,1.08,1.07s.69-.73.54-1.42-.63-1.16-1.08-1.06S267.76,102.16,267.91,102.84Z" style="fill:#263238"></path><path d="M272.7,112c.14.69.63,1.17,1.08,1.07s.69-.73.54-1.42-.63-1.16-1.08-1.06S272.55,111.35,272.7,112Z" style="fill:#263238"></path><path d="M275.66,101.17c.15.68.63,1.16,1.08,1.06s.69-.73.54-1.41-.63-1.17-1.08-1.07S275.51,100.48,275.66,101.17Z" style="fill:#263238"></path><path d="M272.84,102.05a25,25,0,0,0,4.55,5.15c-1,1.4-3.15,1.33-3.15,1.33Z" style="fill:#ed847e"></path><path d="M264.55,100.2a.52.52,0,0,1-.21,0,.43.43,0,0,1-.2-.55,4.14,4.14,0,0,1,2.92-2.37.41.41,0,0,1,.12.82h0a3.27,3.27,0,0,0-2.29,1.9A.41.41,0,0,1,264.55,100.2Z" style="fill:#263238"></path><path d="M278,97.39a.4.4,0,0,1-.36-.16A3.28,3.28,0,0,0,275,95.9a.41.41,0,0,1-.07-.82,4.11,4.11,0,0,1,3.39,1.65.4.4,0,0,1-.07.57A.39.39,0,0,1,278,97.39Z" style="fill:#263238"></path><path d="M247.86,95.63a.74.74,0,0,1-.69-.06,5.77,5.77,0,0,0-5.21-.75.72.72,0,0,1-1-.38.73.73,0,0,1,.38-1,7.26,7.26,0,0,1,6.59.87.72.72,0,0,1,.2,1A.7.7,0,0,1,247.86,95.63Z" style="fill:#263238"></path><path d="M270.57,409.34a10,10,0,0,1-2.27-.31.2.2,0,0,1-.16-.17.2.2,0,0,1,.09-.2c.32-.2,3.13-1.93,4.09-1.43a.64.64,0,0,1,.35.58,1.24,1.24,0,0,1-.42,1.09A2.67,2.67,0,0,1,270.57,409.34Zm-1.68-.6c1.48.3,2.62.24,3.09-.16a.83.83,0,0,0,.28-.74c0-.16-.07-.22-.13-.25C271.63,407.34,270,408.08,268.89,408.74Z" style="fill:#FF7600"></path><path d="M268.34,409a.25.25,0,0,1-.11,0,.2.2,0,0,1-.09-.19c0-.1.21-2.61,1.23-3.44a1.12,1.12,0,0,1,.87-.26h0a.66.66,0,0,1,.66.54c.18,1-1.56,2.87-2.46,3.36A.17.17,0,0,1,268.34,409Zm1.76-3.53a.71.71,0,0,0-.47.18,4.93,4.93,0,0,0-1,2.73c.89-.68,2-2.12,1.89-2.7,0-.05,0-.17-.3-.21h-.09Z" style="fill:#FF7600"></path><path d="M335.68,393.68a.19.19,0,0,1-.17-.12.2.2,0,0,1,.05-.24c.32-.3,3.21-2.95,4.39-2.66a.62.62,0,0,1,.47.43h0a1.15,1.15,0,0,1-.1,1.07c-.69,1.07-3.18,1.41-4.61,1.52Zm4.09-2.64c-.69,0-2.32,1.17-3.48,2.17,1.94-.21,3.3-.67,3.69-1.27a.8.8,0,0,0,.06-.71.24.24,0,0,0-.19-.17Z" style="fill:#FF7600"></path><path d="M335.68,393.68h-.05a.25.25,0,0,1-.14-.16c0-.1-.42-2.42.4-3.59a1.49,1.49,0,0,1,1-.65h0c.56-.09.79.14.89.35.42.91-1.08,3.28-2,4A.21.21,0,0,1,335.68,393.68Zm1.5-4a.9.9,0,0,0-.21,0h0a1.08,1.08,0,0,0-.74.48,4.79,4.79,0,0,0-.38,2.89c.85-.91,1.82-2.71,1.57-3.26A.25.25,0,0,0,337.18,389.66Zm-.25-.18h0Z" style="fill:#FF7600"></path><path d="M279.71,129.76,277,121.38l8.54-1.81s1.86,4.9-.51,8.76Z" style="fill:#ffc3bd"></path><polygon points="276.47 115.89 283.97 114.54 285.5 119.57 276.96 121.38 276.47 115.89" style="fill:#ffc3bd"></polygon><path d="M258.89,141l.51.45.63.54c.44.37.88.74,1.34,1.1.91.71,1.86,1.4,2.84,2a49.08,49.08,0,0,0,6,3.5,39,39,0,0,0,6.36,2.42,32,32,0,0,0,6.56,1.1L278,156a27.44,27.44,0,0,0,1.22-6.14c.23-2.27.36-4.65.38-7.06s0-4.85-.07-7.31-.18-5-.29-7.37V128A3,3,0,0,1,285,127c.85,2.53,1.47,5,2.09,7.54s1.06,5.1,1.43,7.72a67.43,67.43,0,0,1,.65,8,34.05,34.05,0,0,1-.87,8.79,5.1,5.1,0,0,1-4.78,3.85h-.38a38,38,0,0,1-9.18-.79,42.44,42.44,0,0,1-8.64-2.75,49.12,49.12,0,0,1-7.82-4.25c-1.23-.83-2.42-1.7-3.59-2.62-.58-.46-1.16-.93-1.73-1.43l-.85-.78c-.3-.29-.53-.5-.94-.91a6,6,0,0,1,8.18-8.65Z" style="fill:#263238"></path></g><g id="freepik--character-1--inject-10"><path d="M192.84,127.54c-3.89,3-4.16,8.94-4.07,12.47s.28,0-1.85,6.25-.47,13.26,8.73,11.45,13.94.27,20.1,1.71,18.64-5.6,14.57-12.73-5.87-11.74-3.79-14.36,6.32-11.84-1.18-13.73-3.92-5.51-12.84-5.6S186.42,118.24,192.84,127.54Z" style="fill:#263238"></path><path d="M238.52,180.64v.58l0,.71c0,.47,0,1,.07,1.44.06,1,.17,1.95.3,2.91a38.73,38.73,0,0,0,1.15,5.65,26.42,26.42,0,0,0,2,5.15c.21.39.42.79.66,1.16.11.19.22.39.35.57l.19.27.09.14s.11.16,0,0a3.37,3.37,0,0,0-1.87-1,3.27,3.27,0,0,0-1.34,0,2.69,2.69,0,0,0-.73.27c-.3.18-.31.24-.29.23l.2-.18a12.57,12.57,0,0,0,1.45-2c.5-.82,1-1.73,1.47-2.64,1-1.84,1.87-3.79,2.77-5.74,1.78-3.92,3.53-8,5.25-11.95l4.68,1.39a125.45,125.45,0,0,1-3.19,13.09c-.64,2.17-1.38,4.32-2.21,6.5-.42,1.09-.89,2.17-1.43,3.29a20.81,20.81,0,0,1-2.09,3.54,8.78,8.78,0,0,1-.91,1,7,7,0,0,1-1.61,1.21,6.11,6.11,0,0,1-1.49.57,6.45,6.45,0,0,1-1,.13,6.25,6.25,0,0,1-1.14-.08,5.63,5.63,0,0,1-3.24-1.88l-.73-.87c-.22-.25-.41-.51-.61-.78-.41-.52-.77-1.06-1.13-1.6a32.92,32.92,0,0,1-3.33-6.9,40.24,40.24,0,0,1-1.77-7.22c-.18-1.22-.3-2.44-.38-3.66,0-.62-.07-1.23-.08-1.86v-.95l0-1.06Z" style="fill:#ffb573"></path><path d="M233.23,169.41c8.78,6.73,7,17.18,7,17.18l-12.49,5.22s-6.64-12-4.68-16.65C225.12,170.29,228.28,165.62,233.23,169.41Z" style="fill:#263238"></path><path d="M232.35,189.9l-4.6,1.92s-4.23-7.68-4.94-13.13c1-1.28,2.93-1.94,5.16,0C229.67,180.34,231.66,185.24,232.35,189.9Z" style="opacity:0.2"></path><path d="M241.1,186.78h0a1.16,1.16,0,0,1-.75,1.45l-11.86,3.83a1.17,1.17,0,0,1-1.46-.75h0a1.16,1.16,0,0,1,.75-1.45L239.64,186A1.17,1.17,0,0,1,241.1,186.78Z" style="fill:#FF7600"></path><path d="M249.57,178.56l1.75-7,7.55,3.54s-.88,6.2-6,7.57Z" style="fill:#ffb573"></path><polygon points="253.76 166.88 259.36 168.41 258.87 175.08 251.32 171.54 253.76 166.88" style="fill:#ffb573"></polygon><polygon points="189.34 408.59 198.4 409.45 202.22 388.42 193.16 387.55 189.34 408.59" style="fill:#ffb573"></polygon><polygon points="134.93 384.61 142.83 389.14 153.13 370.5 145.24 365.97 134.93 384.61" style="fill:#ffb573"></polygon><path d="M144.27,386.65l-6.93-7.59a.71.71,0,0,0-1-.12l-6.8,4.62a1.47,1.47,0,0,0-.21,2.18c2.46,2.6,3.78,3.74,6.83,7.08,1.87,2.05,5.72,6.87,8.31,9.71s5.53.43,4.71-1c-3.7-6.33-4.21-10.23-4.34-13.38A2.36,2.36,0,0,0,144.27,386.65Z" style="fill:#263238"></path><path d="M199.27,406.72H188.42a.88.88,0,0,0-.84.66L185.5,416a1.4,1.4,0,0,0,1.38,1.72c3.82,0,5.64,0,10.41,0h14.59c4,0,4.67-4,3-4.37-7.41-1.63-11.73-3.88-14.07-6A2.29,2.29,0,0,0,199.27,406.72Z" style="fill:#263238"></path><polygon points="202.21 388.42 200.25 399.27 191.03 399.27 193.15 387.56 202.21 388.42" style="opacity:0.2"></polygon><polygon points="145.23 365.97 153.13 370.51 147.82 380.11 139.91 375.58 145.23 365.97" style="opacity:0.2"></polygon><path d="M230.57,168.1s4,1.75-9.35,54.5l-37-3.2c1.92-15,2.75-24.31-1.78-55.86a109.76,109.76,0,0,1,15.9-.72,118.78,118.78,0,0,1,16.81,1.46A155.91,155.91,0,0,1,230.57,168.1Z" style="fill:#263238"></path><path d="M188.52,177.5c1.6,3.38,1,14.69-2.83,18.65-.12-4.56-.48-9.81-1.19-16.29A5.24,5.24,0,0,1,188.52,177.5Z" style="opacity:0.2"></path><path d="M201.61,144c.6,5.5.8,15.5-3.3,18.78,0,0,4.38,4.47,13.23,9.4,6.44-4.45,3.58-7.94,3.58-7.94-5.9-2-5.36-6.43-4-10.54Z" style="fill:#ffb573"></path><path d="M205.51,148l5.66,5.74a17.5,17.5,0,0,0-.78,2.94c-2.27-.54-5.57-2.9-5.6-5.34A9.75,9.75,0,0,1,205.51,148Z" style="opacity:0.2"></path><path d="M196.77,135.44c2.3,8.79,3.08,12.56,8.47,16.24,8.11,5.54,18.4.8,18.78-8.5.34-8.37-3.47-21.33-12.87-23.16A12.39,12.39,0,0,0,196.77,135.44Z" style="fill:#ffb573"></path><path d="M196.05,142.89a6.62,6.62,0,0,0,3.9,3.24c2.23.67,3.39-1.31,2.81-3.44-.52-1.91-2.31-4.57-4.57-4.31A3,3,0,0,0,196.05,142.89Z" style="fill:#ffb573"></path><path d="M200.91,117.79c-1.57,2.7,2.35,7.7,10.59,7.22,6.21-.36,14,6.31,13.37-.9C224.34,117.55,208.73,114.41,200.91,117.79Z" style="fill:#263238"></path><path d="M205.42,119.77c4.3,3.29,1.44,9.3-.63,12S199.53,137,202,141s4.16,15-3.72,13.07-7.52-15.07-5.23-21.14S200.3,115.86,205.42,119.77Z" style="fill:#263238"></path><path d="M221.22,222.6s9.34,55.73,3.17,89.8C219.62,338.74,204,396.12,204,396.12l-15.79-.4s10.83-55.48,14-77.3c5.41-37.32-8.14-98.17-8.14-98.17Z" style="fill:#FF7600"></path><path d="M206.77,233.79l-7.9,12.45a381.18,381.18,0,0,1,4.52,44.62C214.5,271,209.24,244.31,206.77,233.79Z" style="opacity:0.2"></path><polygon points="206.27 396.94 186.76 396.44 187.89 390.45 207.79 391.39 206.27 396.94" style="fill:#263238"></polygon><path d="M213.12,222s-7.35,58.77-23.28,90.86c-12.87,25.92-38.51,66-38.51,66l-10.63-6.77s16.35-45.55,25.91-62.77c23.45-42.21,4.29-74.43,17.58-89.92Z" style="fill:#FF7600"></path><polygon points="152.47 379.83 138.9 371.7 141.37 365.86 155.83 374.75 152.47 379.83" style="fill:#263238"></polygon><path d="M183.82,217.17l-1.95,3.17c-.16.25.13.54.55.58l38.84,3.35c.33,0,.62-.11.66-.31l.62-3.29c0-.23-.23-.45-.59-.48L184.45,217A.68.68,0,0,0,183.82,217.17Z" style="fill:#FF7600"></path><path d="M183.82,217.17l-1.95,3.17c-.16.25.13.54.55.58l38.84,3.35c.33,0,.62-.11.66-.31l.62-3.29c0-.23-.23-.45-.59-.48L184.45,217A.68.68,0,0,0,183.82,217.17Z" style="opacity:0.2"></path><path d="M188.5,221.8l-1-.08c-.2,0-.34-.14-.32-.26l.85-4.27c0-.12.21-.21.41-.19l1,.08c.2,0,.34.14.32.26l-.85,4.27C188.88,221.73,188.7,221.82,188.5,221.8Z" style="fill:#FF7600"></path><path d="M218.4,224.39l-1-.09c-.2,0-.34-.13-.32-.26l.84-4.26c0-.13.21-.21.41-.2l1,.09c.2,0,.34.13.32.26l-.85,4.26C218.79,224.32,218.6,224.41,218.4,224.39Z" style="fill:#FF7600"></path><path d="M203.45,223.1l-1-.09c-.2,0-.35-.13-.32-.26l.84-4.27c0-.12.21-.21.41-.19l1,.09c.2,0,.35.13.32.25l-.84,4.27C203.83,223,203.65,223.11,203.45,223.1Z" style="fill:#FF7600"></path><path d="M211.65,135.14c.14.72.64,1.23,1.12,1.14s.74-.75.59-1.48-.64-1.23-1.11-1.14S211.51,134.41,211.65,135.14Z" style="fill:#263238"></path><path d="M217.57,144.2c.14.73.64,1.24,1.11,1.15s.74-.76.6-1.48-.64-1.24-1.11-1.15S217.42,143.48,217.57,144.2Z" style="fill:#263238"></path><path d="M219.84,133.53c.14.72.64,1.23,1.11,1.14s.74-.75.6-1.48-.64-1.23-1.11-1.14S219.69,132.8,219.84,133.53Z" style="fill:#263238"></path><path d="M220.24,132.13l1.64-.84S221.25,132.82,220.24,132.13Z" style="fill:#263238"></path><path d="M217,135.33a19.68,19.68,0,0,0,3.49,4.12,3.16,3.16,0,0,1-2.48,1Z" style="fill:#ed893e"></path><path d="M206.73,132.33a.41.41,0,0,1-.18-.05.36.36,0,0,1-.12-.5,4.21,4.21,0,0,1,3.26-2.11.37.37,0,0,1,.37.35.36.36,0,0,1-.34.37,3.53,3.53,0,0,0-2.68,1.77A.36.36,0,0,1,206.73,132.33Z" style="fill:#263238"></path><path d="M222.11,129.43a.41.41,0,0,1-.18-.05,3.52,3.52,0,0,0-3.19-.21.36.36,0,0,1-.49-.15.37.37,0,0,1,.16-.49,4.25,4.25,0,0,1,3.88.22.36.36,0,0,1-.18.68Z" style="fill:#263238"></path><path d="M187.87,177.12c-2,3.95-4.11,8.08-6,12.1-.9,2-1.78,4-2.44,5.95a21.94,21.94,0,0,0-.72,2.57c-.07.32-.06.59-.11.42l0-.09-.06-.17-.11-.24c0-.07,0,0,0,0a1,1,0,0,0,.06.14c.06.14.16.32.65.55a6.37,6.37,0,0,0,2.12.42,24.88,24.88,0,0,0,5.93-.57A88.75,88.75,0,0,0,200,194.39l2.3,4.32a59.73,59.73,0,0,1-13.1,6.57,29.13,29.13,0,0,1-7.81,1.67,14.81,14.81,0,0,1-4.77-.47,10.71,10.71,0,0,1-2.66-1.15,9.79,9.79,0,0,1-2.4-2.11,9.26,9.26,0,0,1-.89-1.32,3,3,0,0,1-.22-.39,5.82,5.82,0,0,1-.27-.64c-.07-.19-.13-.39-.19-.58l-.12-.52a11,11,0,0,1-.12-3.06,23.43,23.43,0,0,1,.8-4.23,60.94,60.94,0,0,1,2.45-7.1,116.73,116.73,0,0,1,6.26-13Z" style="fill:#ffb573"></path><path d="M198.36,196,202,188.7l4.93,6.37s-3,4.44-6.82,4.29Z" style="fill:#ffb573"></path><polygon points="205.87 186.59 210.56 191.76 206.9 195.07 201.97 188.71 205.87 186.59" style="fill:#ffb573"></polygon><path d="M182.41,163.54c-8.25,1.88-8.75,16.77-8.75,16.77l9.38,8.3s9-10.83,8.53-16.74C191.15,166.84,188.13,162.23,182.41,163.54Z" style="fill:#263238"></path><path d="M184.11,189.05h0a1.17,1.17,0,0,1-1.63.21l-9.85-7.64a1.17,1.17,0,0,1-.21-1.62h0a1.17,1.17,0,0,1,1.63-.2l9.85,7.63A1.17,1.17,0,0,1,184.11,189.05Z" style="fill:#FF7600"></path><path d="M147.09,391a1.35,1.35,0,0,1-.35,0c-1.14-.1-2.3-1.89-2.89-3a.18.18,0,0,1,0-.2.18.18,0,0,1,.19-.06c.36.09,3.54.93,3.9,2a.71.71,0,0,1-.15.69A1.3,1.3,0,0,1,147.09,391Zm-2.71-2.73c.86,1.45,1.74,2.33,2.39,2.39a.83.83,0,0,0,.75-.37.35.35,0,0,0,.09-.35C147.39,389.22,145.48,388.54,144.38,388.22Z" style="fill:#FF7600"></path><path d="M146.88,388.09a6.54,6.54,0,0,1-2.93,0,.18.18,0,0,1-.12-.13.18.18,0,0,1,.06-.17c.08-.08,2-1.84,3.33-1.7a1.1,1.1,0,0,1,.8.47.73.73,0,0,1,0,.91A2.07,2.07,0,0,1,146.88,388.09Zm-2.49-.25c1.06.18,3,0,3.39-.58.07-.09.12-.23-.05-.48a.77.77,0,0,0-.55-.32C146.29,386.36,145,387.37,144.39,387.84Z" style="fill:#FF7600"></path><path d="M204.15,408.48a14.4,14.4,0,0,1-3-.38A.18.18,0,0,1,201,408a.2.2,0,0,1,.09-.19c.44-.21,4.32-2,5.34-1.35a.59.59,0,0,1,.27.55,1.27,1.27,0,0,1-.5,1A3.51,3.51,0,0,1,204.15,408.48Zm-2.37-.62c1.18.22,3.35.51,4.22-.17a.92.92,0,0,0,.37-.75.23.23,0,0,0-.11-.24C205.7,406.33,203.4,407.14,201.78,407.86Z" style="fill:#FF7600"></path><path d="M201.21,408.11a.28.28,0,0,1-.12,0,.21.21,0,0,1-.06-.18c0-.17.8-4.05,2.95-3.8.53.06.69.33.72.54.17,1-2.25,3-3.42,3.46Zm2.58-3.68c-1.36,0-2.09,2.26-2.32,3.17,1.26-.67,3-2.29,2.88-2.92,0-.05,0-.19-.41-.24Z" style="fill:#FF7600"></path><path d="M212.05,133.74l1.64-.84S213.06,134.43,212.05,133.74Z" style="fill:#263238"></path></g><g id="freepik--Bubbles--inject-10"><path d="M339.08,62.29a21.33,21.33,0,1,1-6,41.78l-20.45-6,6-20.45a21.43,21.43,0,0,1,20.44-15.31m0-1a22.33,22.33,0,0,0-21.4,16l-6.3,21.41,21.41,6.3A22.32,22.32,0,1,0,345.4,62.2h0a22.36,22.36,0,0,0-6.32-.91Z" style="fill:#FF7600"></path><path d="M340.38,89l-6.29-1.85.19-.63a7.91,7.91,0,0,1,1.13-2.5A6,6,0,0,1,337,82.51a34,34,0,0,1,4.09-2c1.11-.47,1.75-1,1.93-1.61a1.91,1.91,0,0,0-.12-1.57,2.39,2.39,0,0,0-1.48-1,2.74,2.74,0,0,0-2.18.21A4.71,4.71,0,0,0,337.49,79l-6.19-2.68a9.14,9.14,0,0,1,4.26-5c1.91-1,4.42-1,7.51-.13a10.63,10.63,0,0,1,5.38,3.22,6.5,6.5,0,0,1,1.41,6.31,5.45,5.45,0,0,1-1.57,2.49,14.08,14.08,0,0,1-4.12,2.26,8.87,8.87,0,0,0-2.74,1.5A4.53,4.53,0,0,0,340.38,89Zm-7-.25,6.74,2-1.75,5.94-6.74-2Z" style="fill:#FF7600"></path><path d="M143.62,73h0a27.12,27.12,0,0,1,26.46,20.94l6.29,26.49-26.49,6.29a27.48,27.48,0,0,1-6.31.74,27.23,27.23,0,0,1-6.26-53.72,27.48,27.48,0,0,1,6.31-.74m0-1a28.27,28.27,0,0,0-6.54.77h0a28.22,28.22,0,0,0-20.94,34h0a28.18,28.18,0,0,0,34,20.94l27.46-6.52-6.52-27.46A28.23,28.23,0,0,0,143.62,72Z" style="fill:#FF7600"></path><path d="M148.38,105.3l-8.06,1.91-.2-.8a10.37,10.37,0,0,1-.32-3.46,7.54,7.54,0,0,1,.83-2.67,44.36,44.36,0,0,1,3.26-4.72c.93-1.21,1.3-2.2,1.11-3a2.38,2.38,0,0,0-1.12-1.65,3.05,3.05,0,0,0-2.24-.15,3.46,3.46,0,0,0-2.26,1.59,6,6,0,0,0-.43,3.78l-8.48.94A11.55,11.55,0,0,1,132,89q2.22-3.45,8.16-4.86a13.42,13.42,0,0,1,7.93.16,8.26,8.26,0,0,1,5.52,6,7,7,0,0,1-.17,3.72,17.75,17.75,0,0,1-3.11,5.06,11.17,11.17,0,0,0-2.05,3.37A5.67,5.67,0,0,0,148.38,105.3Zm-7.83,4.12,8.64-2L151,115,142.36,117Z" style="fill:#FF7600"></path></g></svg>
