<svg xmlns="http://www.w3.org/2000/svg" viewBox="0 0 500 500"><g id="freepik--background-simple--inject-20"><path d="M232.58,114.21c47.32-1.63,83.71-21,129.64,3.74,38.41,20.69,46.63,55.32,40.11,97.4C386.25,319.06,286.21,352.53,197.45,321.26,113.38,291.63,64,209.79,81.32,122.23c6.55-33.07,37.79-80.6,78.41-60.09C189.52,77.19,192.26,115.59,232.58,114.21Z" style="fill:#FF7600"></path><path d="M232.58,114.21c47.32-1.63,83.71-21,129.64,3.74,38.41,20.69,46.63,55.32,40.11,97.4C386.25,319.06,286.21,352.53,197.45,321.26,113.38,291.63,64,209.79,81.32,122.23c6.55-33.07,37.79-80.6,78.41-60.09C189.52,77.19,192.26,115.59,232.58,114.21Z" style="fill:#fff;opacity:0.9"></path></g><g id="freepik--Shadow--inject-20"><ellipse id="freepik--path--inject-20" cx="250" cy="416.24" rx="193.89" ry="11.32" style="fill:#f5f5f5"></ellipse></g><g id="freepik--Character--inject-20"><path d="M96.52,246.89l2.76,5.35a18.48,18.48,0,0,0,2.13,3.26L87.79,413h3.4l27.06-150.54h42.29L145.42,413h3.4l30.51-157.5a28.62,28.62,0,0,0,3-3.26l4.25-5.35Z" style="fill:#263238"></path><path d="M96.52,246.89l2.76,5.35a18.48,18.48,0,0,0,2.13,3.26L87.79,413h3.4l27.06-150.54h42.29L145.42,413h3.4l30.51-157.5a28.62,28.62,0,0,0,3-3.26l4.25-5.35Z" style="fill:#fff;opacity:0.5"></path><polygon points="291.32 409.97 285.3 409.97 255.56 309.49 265.91 309.49 291.32 409.97" style="fill:#FF7600"></polygon><polygon points="183.9 409.97 189.92 409.97 219.66 309.49 209.31 309.49 183.9 409.97" style="fill:#FF7600"></polygon><polygon points="345.51 409.97 339.49 409.97 309.75 309.49 320.11 309.49 345.51 409.97" style="fill:#FF7600"></polygon><path d="M283.65,186.2c-37.75,8.12-38.39,57.56-34.57,89.82a22.59,22.59,0,0,1-22.42,25.29H189.51a5.61,5.61,0,0,0-2.34,10.7c12.21,5.61,36.72,11.34,85.89,11.34,74.79,0,71.75-40.44,79.67-79.59C365.12,182.58,350.84,171.75,283.65,186.2Z" style="fill:#FF7600"></path><path d="M283.65,186.2c-37.75,8.12-38.39,57.56-34.57,89.82a22.59,22.59,0,0,1-22.42,25.29H189.51a5.61,5.61,0,0,0-2.34,10.7c12.21,5.61,36.72,11.34,85.89,11.34,74.79,0,71.75-40.44,79.67-79.59C365.12,182.58,350.84,171.75,283.65,186.2Z" style="opacity:0.30000000000000004"></path><path d="M237.8,188.21A12.59,12.59,0,0,0,221,194.14l-.33.7-.47,1-.57,1.15-1.2,2.35c-.83,1.56-1.65,3.13-2.54,4.63l0,0c.69-2.31,1.44-4.63,2.21-6.94s1.6-4.85,2.45-7.27c1.65-4.83,3.44-9.74,5.11-14.51l.06-.16a6.29,6.29,0,0,0-11.05-5.75c-3.21,4.48-6,9-8.79,13.62s-5.29,9.41-7.7,14.32a145.07,145.07,0,0,0-6.47,15.4c-.92,2.72-1.79,5.52-2.51,8.5a49.48,49.48,0,0,0-1.4,9.82,10.85,10.85,0,0,0,8.88,11.1l.82.15a27.65,27.65,0,0,0,10.46-.13,31.93,31.93,0,0,0,9-3.41,47.75,47.75,0,0,0,12.44-10.29,64.27,64.27,0,0,0,4.54-5.69c1.37-1.93,2.68-3.86,3.85-5.85s2.31-4,3.32-6c.51-1,1-2.05,1.49-3.11l.69-1.61.75-1.82A12.62,12.62,0,0,0,237.8,188.21Z" style="fill:#263238"></path><path d="M214.4,156.63l-.27,5a14,14,0,0,0,1,5.83l2,5.13a6.63,6.63,0,0,0,5.73,4.18h0a6.59,6.59,0,0,0,7-5.89,25.86,25.86,0,0,0-.69-7.64l-.56-6.35a4.41,4.41,0,0,0-4.07-4l-5.41-.41A4.43,4.43,0,0,0,214.4,156.63Z" style="fill:#ffb573"></path><path d="M229.18,163.23l-.56-6.34a4.42,4.42,0,0,0-4.06-4l-5.24-.4c-.59,8.18,3.6,17.28,8.19,22.8a6.4,6.4,0,0,0,2.35-4.41A25.62,25.62,0,0,0,229.18,163.23Z" style="opacity:0.2"></path><path d="M274.19,177.14c-14.44,1.08-32.52,2.26-45.49,8.43-6.4,3.05-8.12,9.46-7.17,16.49,1.51,11.16,2.81,20.07,5.59,29.49,6.44,21.73-6.47,37.29,8,54.12,6.35,7.22,45.28,14,72.85,4.94,4-16.45-1.17-57.36-6.7-94.6C299.34,182.86,287.46,176.15,274.19,177.14Z" style="fill:#FF7600"></path><path d="M256.27,159.65c.7,6.12,3.73,15.1,8.91,17.9a4,4,0,0,1,.73,6.5c-3.05,2.67-7.76,5-14.08,6.31-8.24,1.68-10-.81-9.88-3.37a6,6,0,0,1,1.44-3.34c2.66-3.28,0-5.83-1.65-7.75Z" style="fill:#ffb573"></path><path d="M252.57,168.88a10.09,10.09,0,0,0-.54-1l-10.28,8.05c1,1.25,2.56,2.78,2.75,4.59C249.81,177.33,254.13,172.2,252.57,168.88Z" style="opacity:0.2"></path><path d="M188.51,379.91c2-2.05,14.72-6,14.72-6a252,252,0,0,1,8.24,29.24L195,404.83S192.27,388.14,188.51,379.91Z" style="fill:#ffb573"></path><path d="M261.35,277.62c-47.63.68-110.31-1.87-95.55,41.54,6.32,18.58,5.81,25.41,13.2,47.92,3.18,9.69,4.26,12.54,6.57,19.25,2.53,6,17.69,4.9,23.29,2.55,6.73-3.58,1-13.25.25-18.69-3.83-26.56,4.12-36.71-4.24-54.12,15.2,2.2,57.93.66,64.29-25.46C269.16,290.61,277.92,280.2,261.35,277.62Z" style="fill:#263238"></path><path d="M189.45,389.53l2,4a1.25,1.25,0,0,0,1.33.67c2.7-.47,10.74-1.76,15.42-1.19a1.26,1.26,0,0,0,1.39-1.17c.09-1.58.07-3.63.05-4.92a1.27,1.27,0,0,0-1.26-1.23,91.55,91.55,0,0,0-18.12,2A1.26,1.26,0,0,0,189.45,389.53Z" style="fill:#FF7600"></path><path d="M215,413.61,213.28,402a1.16,1.16,0,0,0-1.22-.89l-16.89.07a6.23,6.23,0,0,0-3.84,1c-3.8,3.14-9.69,6.15-18.25,7.81-2.71.53-1.56,5.91,4.79,5.88,10.5-.05,10.06-.38,19-.41,7.66,0,9.58.35,15.66.41A2.3,2.3,0,0,0,215,413.61Z" style="fill:#263238"></path><path d="M250.4,143.59c4.47,10.24,7.61,16,5.22,24-3.58,12.09-18.1,14.81-25.53,6.35-6.68-7.62-12.87-23.1-5.22-32.78C232.41,131.64,245.93,133.34,250.4,143.59Z" style="fill:#ffb573"></path><path d="M242.18,168.21a10.64,10.64,0,0,1,1.65.09.28.28,0,0,1,.24.33.27.27,0,0,1-.32.24A7.76,7.76,0,0,0,237,171a.29.29,0,0,1-.41,0,.28.28,0,0,1,0-.4A8.08,8.08,0,0,1,242.18,168.21Z" style="fill:#263238"></path><path d="M237.57,156c-.51.29-.55,1.16-.1,1.94l1.84-1.07C238.86,156.09,238.08,155.7,237.57,156Z" style="fill:#263238"></path><path d="M228,161.43c-.51.29-.56,1.16-.1,1.94l1.84-1.07C229.23,161.52,228.46,161.13,228,161.43Z" style="fill:#263238"></path><path d="M235.07,151.14a.53.53,0,0,1,.55-.19,4.17,4.17,0,0,0,3.74-.75.53.53,0,0,1,.75,0,.53.53,0,0,1,0,.75,5.24,5.24,0,0,1-4.72,1,.53.53,0,0,1-.38-.64A.56.56,0,0,1,235.07,151.14Z" style="fill:#263238"></path><path d="M226.75,155.84a.48.48,0,0,1,.35-.09.53.53,0,0,1,.48.57,5.23,5.23,0,0,1-2.48,4.14.53.53,0,0,1-.71-.22.52.52,0,0,1,.21-.71,4.18,4.18,0,0,0,1.92-3.3A.54.54,0,0,1,226.75,155.84Z" style="fill:#263238"></path><path d="M230.09,162a4.63,4.63,0,0,1-1.93,4C232.82,165.24,230.09,162,230.09,162Z" style="opacity:0.2"></path><path d="M236.31,158.54a4.62,4.62,0,0,0,4.39.1C238.16,161.85,236.31,158.54,236.31,158.54Z" style="opacity:0.2"></path><path d="M258.85,143.93c-.5-4.62-1.72-8.07-3.34-10.41a12.18,12.18,0,0,0,2.17.48c-4.12-6.25-10.84-5.08-13-2.55-2.63-5.75-6.35-1.91-10.58-1.18S222,127.94,222,127.94s1.73,3,4.55,3.46c-5.47,2.47-7.49,6.72-8.94,10s-5.85,7.21-5.85,7.21a7.5,7.5,0,0,0,5-1.84c-.55,3.34-2.86,9.57-4,11,3-1,5.81-4.67,5.81-4.67s.54,6,3.36,10.06c-.58-5.19,7.73-15.58,7.73-15.58a20.59,20.59,0,0,0,0,6.73c3.75-3.17,9.86-13.55,9.86-13.55a39.08,39.08,0,0,0,1.27,8.93,12.29,12.29,0,0,1,2.14-4.83c-1.1,3.72,1.7,12.32,1.7,12.32a26.64,26.64,0,0,1,.43-6.71c.79,2.56,5.64,5.38,7.63,5.67C252.67,156.16,260.26,156.75,258.85,143.93Zm-14.13-12.48Z" style="fill:#263238"></path><path d="M258.75,153.25a10.34,10.34,0,0,1-3.42,7.1c-2.72,2.39-5.64.34-6.19-3-.5-3.05.31-8,3.66-9.05S258.91,149.91,258.75,153.25Z" style="fill:#ffb573"></path><path d="M232.74,160.89s1.51,5.39,1.22,8.75c2.19.23,4-1.94,4-1.94Z" style="fill:#ed893e"></path><path d="M227.24,316.21c-.58-6.61-1.42-13.22-2.54-19.76a29.12,29.12,0,0,0-2.86-8.57c-32-4.26-34.83,22.34-13.68,72.91-1.12-19.86,4-29.53-3.28-44.72A97.67,97.67,0,0,0,227.24,316.21Z" style="opacity:0.2"></path><path d="M255,151.66l2.13,4.43a12,12,0,0,1,1.24,5.41l-.11,5a5.2,5.2,0,0,1-4.16,4.87h0a8.43,8.43,0,0,1-9.22-3.91,22.75,22.75,0,0,1-2.17-7l-1.81-5.8a3.4,3.4,0,0,1,2.56-4.4l5.25-1.42A5.64,5.64,0,0,1,255,151.66Z" style="opacity:0.2"></path><path d="M256.22,152.25l1.64,4.73a13.67,13.67,0,0,1,.71,5.85l-.53,5.5a6.61,6.61,0,0,1-4.34,5.6h0a6.59,6.59,0,0,1-8.39-3.71,25.6,25.6,0,0,1-1.46-7.53l-1.22-6.26a4.42,4.42,0,0,1,2.79-5l5.09-1.89A4.42,4.42,0,0,1,256.22,152.25Z" style="fill:#ffb573"></path><path d="M289.93,182.87A12.57,12.57,0,0,0,274.68,192l-.25,1-.46,1.88L273.4,197c-.41,1.45-.81,2.91-1.28,4.35-.89,2.88-1.95,5.66-3.06,8.29l-.06.14c-1.11-3.35-2.14-6.84-3.06-10.39-.68-2.51-1.33-5.06-1.93-7.62s-1.24-5.14-1.81-7.74c-1.18-5.16-2.28-10.46-3.4-15.6l0-.15a6.29,6.29,0,0,0-12.42,1c-.34,5.68-.33,11.16-.19,16.76s.53,11.16,1.14,16.79c.3,2.82.71,5.65,1.17,8.5s1,5.74,1.75,8.66a73,73,0,0,0,2.8,9,40.54,40.54,0,0,0,2.24,4.86,29.81,29.81,0,0,0,3.69,5.34,11,11,0,0,0,14.1,2.07l.68-.43a44.21,44.21,0,0,0,5.86-4.41,47.15,47.15,0,0,0,4.79-5,63.93,63.93,0,0,0,3.93-5.33c1.17-1.83,2.21-3.67,3.19-5.53a62,62,0,0,0,2.63-5.62c.78-1.89,1.53-3.78,2.15-5.7s1.22-3.83,1.7-5.79c.24-1,.49-2,.69-3L299,199l.3-1.76A12.61,12.61,0,0,0,289.93,182.87Z" style="fill:#263238"></path><path d="M236.08,379c1.75-2.24,14-7.43,14-7.43a252.22,252.22,0,0,1,11.15,28.26l-16.22,3.31S240.66,386.83,236.08,379Z" style="fill:#ffb573"></path><path d="M267.46,274.43c-46.81,3.19-83,3.29-62.36,44.23,8.84,17.52,10.59,26.91,20.22,48.55,4.14,9.32,5.51,12.05,8.48,18.5,3.13,5.73,18.1,3.08,23.43.18,6.33-4.25-.31-13.29-1.64-18.62-6.49-26,.13-35.29-9.79-51.86,15.33.79,55.83,1.32,62.19-24.8C308,290.61,300.37,274.43,267.46,274.43Z" style="fill:#263238"></path><path d="M238,388.49l2.43,3.8a1.26,1.26,0,0,0,1.4.53c2.63-.74,10.5-2.83,15.22-2.75a1.25,1.25,0,0,0,1.26-1.3c-.07-1.58-.29-3.62-.45-4.89a1.25,1.25,0,0,0-1.38-1.1,90.5,90.5,0,0,0-17.82,3.84A1.25,1.25,0,0,0,238,388.49Z" style="fill:#FF7600"></path><path d="M265.88,409.12l-3.37-11.73a1.14,1.14,0,0,0-1.34-.7l-16.7,2.52a6.18,6.18,0,0,0-3.65,1.58,27.85,27.85,0,0,1-16.48,9.27c-2.7.53-1.55,5.91,4.79,5.88,10.51-.05,10.05-1.39,18.91-2.68,6.7-1,9.54-1,15.6-1.58A2.29,2.29,0,0,0,265.88,409.12Z" style="fill:#263238"></path><rect x="82.35" y="240.68" width="335.29" height="6.2" transform="translate(500 487.57) rotate(180)" style="fill:#FF7600"></rect><rect x="82.35" y="240.68" width="335.29" height="6.2" transform="translate(500 487.57) rotate(180)" style="fill:#fff;opacity:0.5"></rect><rect x="326.7" y="240.68" width="90.95" height="6.2" transform="translate(744.34 487.57) rotate(180)" style="fill:#FF7600;opacity:0.30000000000000004"></rect><path d="M408.81,413h3.4L398.59,255.5a18.12,18.12,0,0,0,2.13-3.26l2.76-5.35H313.37l4.25,5.35a27.8,27.8,0,0,0,3.05,3.26L351.18,413h3.4L339.46,262.46h42.29Z" style="fill:#263238"></path><path d="M408.81,413h3.4L398.59,255.5a18.12,18.12,0,0,0,2.13-3.26l2.76-5.35H313.37l4.25,5.35a27.8,27.8,0,0,0,3.05,3.26L351.18,413h3.4L339.46,262.46h42.29Z" style="fill:#fff;opacity:0.6000000000000001"></path></g><g id="freepik--Papers--inject-20"><rect x="88.93" y="214.31" width="79.62" height="26.38" style="fill:#FF7600"></rect><rect x="88.93" y="214.31" width="79.62" height="26.38" style="fill:#fff;opacity:0.8"></rect><rect x="128.74" y="214.31" width="39.81" height="26.38" style="fill:#FF7600;opacity:0.30000000000000004"></rect><polygon points="102.48 224.19 128.65 226.39 161.23 224.19 102.48 224.19" style="fill:#FF7600;opacity:0.30000000000000004"></polygon><polygon points="90.89 230.41 106.11 231.46 125.05 230.41 90.89 230.41" style="fill:#FF7600;opacity:0.30000000000000004"></polygon><path d="M128.74,209.64c-10.7,5.12-40.95,1.19-40.95,1.19s4,3.48,7.92,3.48h69.64s2.65-.89,2.65-1.83C150.25,215.13,132.22,211.74,128.74,209.64Z" style="fill:#FF7600"></path><path d="M128.74,209.64c-10.7,5.12-40.95,1.19-40.95,1.19s4,3.48,7.92,3.48h69.64s2.65-.89,2.65-1.83C150.25,215.13,132.22,211.74,128.74,209.64Z" style="fill:#fff;opacity:0.4"></path><rect x="325.71" y="226.58" width="84.58" height="14.1" style="fill:#FF7600"></rect><rect x="325.71" y="226.58" width="84.58" height="14.1" style="fill:#fff;opacity:0.8"></rect><rect x="367.99" y="226.58" width="42.29" height="14.1" style="fill:#FF7600;opacity:0.30000000000000004"></rect><polygon points="390.19 234.78 362.39 233.6 327.78 234.78 390.19 234.78" style="fill:#FF7600;opacity:0.30000000000000004"></polygon><polygon points="402.5 231.44 386.33 230.88 366.21 231.44 402.5 231.44" style="fill:#FF7600;opacity:0.30000000000000004"></polygon><path d="M360.23,218.58c-2.46,8.66-35.74,4.52-35.74,4.52s4.23,3.48,8.41,3.48h74s8.76-2,8.76-2.94C396.78,226.3,368,224.43,360.23,218.58Z" style="fill:#FF7600"></path><g style="opacity:0.4"><path d="M360.23,218.58c-2.46,8.66-35.74,4.52-35.74,4.52s4.23,3.48,8.41,3.48h74s8.76-2,8.76-2.94C396.78,226.3,368,224.43,360.23,218.58Z" style="fill:#fff"></path></g></g></svg>